# xmcd
#
# Track frame offsets: 
# 183
# 17345
# 45683
# 62430
# 83483
# 102908
# 126083
# 146620
# 162733
# 189345
# 215095
#
# Disc length: 3260 seconds
# Submitted via: tkcNetwork 1.0
# Revision: 0
# Processed by: cddbd v1.5.2PL0 Copyright (c) Steve Scherf et al.
#
DISCID=900cba0b
DTITLE=Ella Fitzgerald and Louis Armstrong - Ella And Louis
DYEAR=1956
DGENRE=Jazz
TTITLE0=Can't We Be Friends
TTITLE1=Isn't This A Lovely Day
TTITLE2=Moonlight In Vermont
TTITLE3=They Can't Take That Away From Me
TTITLE4=Under A Blanket Of Blue
TTITLE5=Tenderly
TTITLE6=A Foggy Day
TTITLE7=Stars Fell On Alabama
TTITLE8=Cheek To Cheek
TTITLE9=The Nearness Of You
TTITLE10=April In Paris
EXTD=
EXTT0=
EXTT1=
EXTT2=
EXTT3=
EXTT4=
EXTT5=
EXTT6=
EXTT7=
EXTT8=
EXTT9=
EXTT10=
PLAYORDER=
